<?xml version="1.0" encoding="UTF-8" standalone="no"?>
<!-- Created with Inkscape (http://www.inkscape.org/) -->
<svg id="svg1" xmlns:rdf="http://www.w3.org/1999/02/22-rdf-syntax-ns#" xmlns="http://www.w3.org/2000/svg" height="128pt" width="128pt" xmlns:cc="http://creativecommons.org/ns#" xmlns:xlink="http://www.w3.org/1999/xlink" xmlns:dc="http://purl.org/dc/elements/1.1/">
 <metadata id="metadata3">
  <rdf:RDF>
   <cc:Work rdf:about="">
    <dc:title>Etiquette Icons</dc:title>
    <dc:description/>
    <dc:subject>
     <rdf:Bag>
      <rdf:li/>
      <rdf:li>insect</rdf:li>
      <rdf:li>animal</rdf:li>
     </rdf:Bag>
    </dc:subject>
    <dc:publisher>
     <cc:Agent rdf:about="http://www.openclipart.org">
      <dc:title>Andy Fitzsimon</dc:title>
     </cc:Agent>
    </dc:publisher>
    <dc:creator>
     <cc:Agent>
      <dc:title>Andy Fitzsimon</dc:title>
     </cc:Agent>
    </dc:creator>
    <dc:rights>
     <cc:Agent>
      <dc:title>Andy Fitzsimon</dc:title>
     </cc:Agent>
    </dc:rights>
    <dc:date/>
    <dc:format>image/svg+xml</dc:format>
    <dc:type rdf:resource="http://purl.org/dc/dcmitype/StillImage"/>
    <cc:license rdf:resource="http://web.resource.org/cc/PublicDomain"/>
    <dc:language>en</dc:language>
   </cc:Work>
   <cc:License rdf:about="http://web.resource.org/cc/PublicDomain">
    <cc:permits rdf:resource="http://web.resource.org/cc/Reproduction"/>
    <cc:permits rdf:resource="http://web.resource.org/cc/Distribution"/>
    <cc:permits rdf:resource="http://web.resource.org/cc/DerivativeWorks"/>
   </cc:License>
  </rdf:RDF>
 </metadata>
 <defs id="defs3">
  <linearGradient id="linearGradient1530" y2="-1.0078" y1="0.63281" x2="1.044" x1="0.40881">
   <stop id="stop1528" stop-color="#000" offset="0"/>
   <stop id="stop1529" stop-color="#fff" offset="1"/>
  </linearGradient>
  <radialGradient id="radialGradient1645" fx="0.3876" fy="0.67188">
   <stop id="stop1647" stop-color="#F00" offset="0"/>
   <stop id="stop1649" stop-color="#a00000" stop-opacity="0.71372551" offset="0.69372"/>
   <stop id="stop1648" stop-color="#960000" stop-opacity="0.0000000" offset="1"/>
  </radialGradient>
 </defs>
 <g id="g1701" fill-rule="evenodd" fill-opacity="0.11949683" transform="matrix(1.220873,0.000000,0.000000,1.270047,-71.14574,-198.5555)" stroke-width="0.25000000">
  <path id="path1664" d="M129.06,175.32c-0.23-0.06-0.53,0.03-0.78,0.34-2.27,5.29-3.18,8.85-6.22,14.63-1.16,7.86-2.07,15.55-3.13,23.34-0.98-0.21-1.98-0.39-3.03-0.47-1.5-4.63-4.21-11.64-5.37-15.91-2.21-3.44-3.68-7.1-5.91-10.53-1.48-1.63-3.65-3.08-5.125-4.72-0.361,0.42,2.175,4.17,3.495,5.79,1.27,2.87,3.44,8.01,6.19,11.21,1.4,5.38,2.37,9.52,3.44,14.25-0.92,0.05-1.95-0.03-2.75,0.1-0.98,0.15-1.93,0.55-2.81,1.06-0.15-0.77-0.61-1.52-1-1.87-2.25-1.8-2.83-2.92-4.72-5.13-3.287-0.28-10.364-5.48-14.033-7.41-4.71-0.37-9.416-0.79-14.125-1.18,1.258,1.42,2.434,0.67,3.594,1.09,3.349,0.28,6.808,1.03,10.156,1.31,3.56,1.96,6.61,4.41,9.844,6.88,2.328,2.72,5.604,5.25,8.344,7.69-0.26,0.21-0.44,0.39-0.69,0.62-1.88-0.99-7.194-5.29-10.435-4.84-7.997,6.02-13.445,9.39-22.281,12.34-0.549,1.4-1.246,15.54-1.063,20.13,1.327-1.58,0.951-2.28,1.25-3.5,0.003-4.21,0.716-8.4,0.719-12.6,9.187-3.63,14.869-9.35,22.656-14.03,2.536,1.18,4.698,3.06,7.034,4.63-0.29,0.3-0.7,0.71-0.94,0.96-1.808,1.93-4.024,6.11-4.063,9.69s0.611,10.34,4.313,12.72c4.08,2.63,10.07-0.48,14.56-3.28,2.44-1.52,4.63-4.48,6.31-7.5,0.71,0.28,1.5,0.6,2.04,0.78-1.7,5.52-6.2,14.86-5.07,16.56-2.6,7.41-5.8,14.51-8.4,21.91,0.61,0.24,10.03-21.36,10.22-22.38,1.54,0.37,3.09-12.56,4.15-17.21-0.79-0.28-1.58-0.55-2.37-0.82,0.12-0.23,0.26-0.45,0.37-0.68,1.84,0.57,3.9,1.26,5.53,1.71,3.52,4.52,7.51,15.68,8.69,14.6,2.5,3.42,3.97,11.88,3.69,11.25-0.26-5.6-1.16-8.98-2.75-12.6,1.84-0.41-6.37-8.74-7.78-15.93-1.73-0.48-4.25-0.65-6.47-0.94,0.08-0.19,0.11-0.32,0.19-0.5l14.34-5.41c6.66,1.42,16.13,3.15,22.47,5.72,2.22,2.21,4.59,4.98,5.9,8.35-0.48-3.66-2.85-7.2-5.15-10.19l-1.41-1c-6.49-1.19-12.72-2.28-18.22-5.53l-3.53,0.09-13.19,4c0.04-0.22,0.08-0.44,0.1-0.66,0.3-0.01,0.54-0.11,0.65-0.53,4.55-5.82,9.84-12.44,14.07-18.5,10.1-1.69,16.39-7.07,24.84-10.5,2.93,2.78,6.54,6.22,9.47,9-0.1-1.31-6.41-7.84-9.22-10.47-8.8,3.6-16.79,7.82-26.44,9.72-2.65,4.29-8.44,11.44-14,17.16-0.61-1.46-1.57-2.73-3.03-3.47-0.14-0.07-0.32-0.09-0.47-0.16,0.65-7.96,1.3-15.8,1.94-23.84,2.58-3.89,3.87-7.63,4.94-12.03,0.52,3.47,1.04,6.94,1.56,10.41,0.75-4.95,0.05-9.92-0.66-13.13-0.04-0.31-0.21-0.53-0.43-0.59z"/>
  <path id="path1690" d="M128.97,174.19c-3.87,2.74-3.77,8.26-6.21,12.08-3.43,7.04-2.77,15.17-4.3,22.72,0.55,5.25-3.11,2.71-3.13-0.95-2.52-7.75-5.5-15.5-10.25-22.15-2.25-2.64-5.116-4.67-7.799-6.86,1.846,5.82,5.829,10.59,8.149,16.18,3.57,4.82,4.24,10.87,5.67,16.44-0.92,1.12-4.36,1.89-5.13-0.74-2.49-2.16-4.27-5.18-7.814-5.75-5.225-2.92-10.21-7.2-16.578-6.71-4.047-0.34-8.092-0.7-12.14-1.01,3.25,2.85,7.286,4.04,11.547,4.16,7.814,0.09,13.49,5.98,18.953,10.84-3.052-2.27-7.334-2.3-10.024,0.56-5.956,4.17-12.214,7.97-19.195,10.16-0.754,8.19-1.256,16.42-1,24.65,3.128-4.22,3.77-9.39,3.711-14.49-0.325-2.78,0.415-5.85,3.555-6.36,6.489-3.23,12.183-7.98,18.359-11.8,1.861,1.4,6.936,2.84,3.882,5.71-3.811,5.53-3.858,13.47-0.454,19.15,2.058,3.76,6.888,4.92,10.588,2.95,5.64-1.39,10.46-5.61,13.45-10.28-0.38,3.56-2.72,6.72-3.4,10.32-1.08,4.27-1.85,8.62-3.86,12.64-2.04,5.14-3.83,10.38-5.74,15.57,3.3,0.65,3.43-4.1,4.94-5.99,2.91-6.66,6.43-13.13,8.92-19.92,0.91-4.65,1.82-9.29,2.74-13.93,4.64,1.87,5.26,7.77,7.92,11.55,2.52,3.65,5.07,7.37,5.54,11.94,0.39,1.77,2.39,7.06,2.21,2.6,0.68-5.55-1.83-10.77-3.16-15.99-3.07-4.46-5.67-9.17-7.7-14.2-4.47-0.01-3.33-0.93,0.05-1.82,3.99-1.81,8.42-3.46,12.7-1.81,5.91,1.32,12.02,2.67,17.46,5.23,2.84,2.84,4.47,6.63,7.01,9.71,0.04-5.65-2.7-11.07-6.78-14.81-6.08-1.61-12.38-2.67-18.05-5.41-5.21-1.76-10.2,1.54-15.2,2.54,4.54-5.67,8.55-12.11,13.79-17.06,8.2-1.87,15.45-6.28,22.99-9.85,3.73,3.56,7.43,7.22,11.65,10.19-1.78-5.98-6.81-9.85-10.93-14.19-9.02,3.83-18.14,7.79-27.53,10.34-4.08,5.58-8.34,10.97-13.04,16.04-0.9-1.65-3.49-2.58-2.31-4.85,0.77-7.3,0.75-14.87,2.42-21.97,1.26-0.94,2.73-8.21,2.95-4.68,0.44,1.73,1.38,8.03,2.17,6.25,1.36-5.31,0.94-11.11-0.49-16.28-0.28-0.29-0.68-1.21-1.11-0.66z"/>
  <path id="path1695" d="M129.31,173.12c-3.6,1.52-4.7,6.14-6.21,9.49-4,8.57-4.77,18.03-5.88,27.3-4.09-9.67-6.55-20.9-14.93-27.98-1.88-0.92-4.739-6.01-6.228-3.65,2.817,8.81,8.888,16.48,11.888,25.29-0.11,2.33,3.81,8.11,0.09,7.7-3.37-2.88-6.36-6.46-10.782-7.92-4.963-2.84-10.014-5.95-15.936-6.06-4.385-0.13-8.95-1.08-13.228-0.79-0.541,1.94,3.477,3.82,5.498,4.43,6.205,2.3,13.715,1.49,18.718,6.56,4.48,2.45,0.949,2.32-1.937,3.87-6.538,4.28-13.166,8.58-20.654,11.05-0.791,9.75-1.062,19.53-1.125,29.31,3.93-5.23,5.995-11.58,5.879-18.11-0.536-3.35,1.634-5.4,4.422-6.62,5.483-3.53,10.966-7.06,16.449-10.58,3.079,1.06,3.99,3.44,2.09,5.99-3,5.73-2.512,12.96,0.785,18.44,2.711,4.99,9.381,4.55,13.781,2.26,3.2-1.29,6.19-3.31,8.41-5.98-3.16,9.55-5.87,19.24-9.68,28.57-0.05,2.1-4.54,7.61-0.62,6.68,4.65-1.09,5.2-7,7.37-10.54,3.96-8.22,7.9-16.5,9.11-25.65-0.1-4.87,2.87-1.12,3.65,1.21,3.08,6.38,7.89,11.96,9.11,19.11,0.54,2,4.14,7.61,3.51,2.79,1.12-9.4-2.73-18.67-7.78-26.36-0.18-2.22-5-6.35-1.64-7.15,7.41-3.46,15.3,0.15,22.55,2.27,6.43,1.11,8.68,7.79,12.38,12.27,2.61,4.7,0.79-2.51,0.86-4.61-1.14-4.97-3.47-10.3-7.84-13.06-6.56-1.3-12.83-3.85-19.25-5.51-3.76-0.75-7.39,0.78-10.92,1.83,4.11-5.02,7.44-11.3,13.07-14.66,7.34-1.96,13.89-5.8,20.71-9.06,4.53,4.37,9.36,8.34,14.34,12.19-1.98-6.44-6.04-11.83-10.94-16.35-1.8-3.93-5.1-0.94-7.94-0.03-7.47,3.29-15.34,5.72-22.9,8.66-3.91,5.14-7.92,10.17-12.22,15-2.71-3.56-0.3-8.44-0.44-12.56,0.49-5.02,1.05-10.16,2.79-14.91,0.39,1.99,1.41,6.91,4.03,4.03,1.23-5.86,0.6-12.06-1.25-17.62-0.39-0.06-0.74-0.75-1.16-0.54z"/>
 </g>
 <g id="g1651" style="" fill-rule="evenodd" transform="matrix(1.249028,0.000000,0.000000,1.249028,-39.49064,-43.35296)">
  <path id="path924" d="M66,205.75c-0.206,0.63-0.722,1.4,0.296,1.43,0.745,0.25,2.068,0.83,2.813,1.09-1.697,5.52-6.187,14.86-5.056,16.57-2.606,7.4-5.79,14.48-8.397,21.88,0.612,0.24,10.035-21.35,10.22-22.36,1.539,0.36,3.091-12.58,4.155-17.24-1.339-0.47-2.688-0.91-4.031-1.37z" transform="translate(27.71673,-98.98831)" stroke-width="0.25000000"/>
  <path id="path923" d="M66.656,203.41c0.027,0.42-0.741,1.76-0.057,1.8,2.054,0.58,4.891,1.59,6.945,2.16,3.518,4.52,7.504,15.68,8.689,14.59,2.495,3.43,3.977,11.86,3.693,11.23-0.256-5.6-1.145-8.98-2.738-12.6,1.836-0.41-6.389-8.71-7.799-15.91-2.333-0.65-6.4-0.63-8.733-1.27z" transform="translate(27.71673,-98.98831)" stroke-width="0.25000000"/>
  <path id="path922" d="M83.511,195.25l-14.383,4.38-0.678,3.86,15.001-5.67c6.665,1.41,16.135,3.16,22.469,5.73,2.22,2.2,4.6,4.99,5.92,8.35-0.49-3.65-2.87-7.22-5.17-10.21l-1.4-0.98c-6.491-1.19-12.731-2.29-18.229-5.54l-3.53,0.08z" transform="translate(27.71673,-98.98831)" stroke-width="0.25000000"/>
  <path id="path921" d="M110.25,167.59c-8.8,3.6-16.793,7.83-26.438,9.73-2.864,4.63-9.348,12.72-15.287,18.6-1.168,1.04,2.067,4.05,2.57,2.15,4.548-5.82,9.824-12.42,14.056-18.48,10.098-1.69,16.399-7.1,24.849-10.53,2.93,2.78,6.51,6.22,9.44,9.01-0.1-1.31-6.38-7.85-9.19-10.48z" transform="translate(27.71673,-98.98831)" stroke-width="0.25000000"/>
  <path id="path920" d="M72.874,152.01c-2.266,5.3-3.179,8.86-6.224,14.63-1.387,9.44-2.362,18.55-3.749,27.99,1.022,0.22,2.044,0.44,3.065,0.67,0.761-9.54,1.523-18.75,2.284-28.28,2.582-3.89,3.864-7.65,4.938-12.05,0.52,3.47,1.041,6.94,1.562,10.41,0.752-4.95,0.033-9.91-0.677-13.12-0.097-0.62-0.69-0.86-1.199-0.25z" transform="translate(27.71673,-98.98831)" stroke-width="0.25000000"/>
  <path id="path919" d="M44.094,158.34c-0.361,0.42,2.174,4.19,3.496,5.81,1.267,2.88,3.442,7.98,6.194,11.19,1.805,6.94,2.935,11.37,4.432,18.38,0.143,0.67,2.639,0.32,3.212,0.35,1.169-0.25-4.522-13.93-6.303-20.48-2.203-3.44-3.706-7.08-5.934-10.5-1.479-1.64-3.618-3.11-5.097-4.75z" transform="translate(27.71673,-98.98831)" stroke-width="0.25000000"/>
  <path id="path918" d="M17.781,175.16c1.258,1.42,2.428,0.67,3.588,1.1,3.349,0.28,6.814,1.02,10.162,1.3,3.56,1.96,6.593,4.4,9.827,6.88,2.55,2.98,6.32,5.77,9.175,8.41,2.117-0.91,0.917-3.24,0.117-3.96-2.248-1.79-2.833-2.93-4.719-5.14-3.286-0.28-10.356-5.48-14.025-7.41-4.71-0.37-9.416-0.79-14.125-1.18z" transform="translate(27.71673,-98.98831)" stroke-width="0.25000000"/>
  <path id="path917" d="M38.592,187.91c-7.997,6.02-13.467,9.4-22.303,12.35-0.549,1.4-1.222,15.53-1.039,20.12,1.327-1.58,0.954-2.26,1.253-3.48,0.003-4.2,0.706-8.4,0.709-12.6,9.188-3.63,14.875-9.37,22.663-14.05,2.879,1.34,5.22,3.66,7.948,5.3,1.603-1.79,2.441-1.8,1.371-2.66-1.773-0.87-7.295-5.43-10.602-4.98z" transform="translate(27.71673,-98.98831)" stroke-width="0.25000000"/>
  <path id="path1524" d="M45.964,195.85c-1.809,1.93-4.045,6.11-4.083,9.69-0.039,3.57,0.614,10.33,4.316,12.71,4.083,2.63,10.091-0.47,14.582-3.27,4.492-2.79,8.166-10.59,9.333-14.34,1.167-3.76-0.018-7.94-3.343-9.61-3.325-1.68-8.685-1.88-12.321-1.32s-6.676,4.22-8.484,6.14z" transform="translate(27.71673,-98.98831)" stroke-width="1.0000000pt"/>
  <path id="path1526" d="M48.287,196.09s2.601-6.43,12.282-4.55,7.08,8.17,5.924,9.55-24.418,17.87-18.206-5z" transform="translate(27.71673,-98.98831)" stroke-width="1.0000000pt" fill="url(#linearGradient1530)"/>
  <path id="path1525" d="M54.939,208.16a6.9292,6.9292,0,1,0,-13.859,0,6.9292,6.9292,0,1,0,13.859,0z" transform="matrix(1.142856,0.000000,0.000000,1.142856,23.49794,-126.0854)" stroke-width="1.0000000pt" fill="url(#radialGradient1645)"/>
 </g>
 <path id="text893" stroke-width="1pt" transform="scale(0.234913,0.234913)" d="M53.309-41.376h-0.652v-5.726h0.703v2.043c0.297-0.373,0.676-0.559,1.137-0.559,0.255,0,0.496,0.052,0.724,0.154,0.228,0.103,0.416,0.248,0.563,0.434s0.262,0.411,0.345,0.674c0.084,0.263,0.125,0.544,0.125,0.844,0,0.711-0.175,1.26-0.527,1.648-0.351,0.388-0.773,0.582-1.265,0.582-0.49,0-0.874-0.204-1.153-0.613v0.519zm-0.008-2.105c0,0.497,0.068,0.857,0.203,1.078,0.222,0.362,0.521,0.543,0.899,0.543,0.307,0,0.573-0.134,0.797-0.4,0.224-0.267,0.336-0.665,0.336-1.194,0-0.541-0.108-0.941-0.323-1.199-0.214-0.258-0.474-0.387-0.779-0.387-0.307,0-0.573,0.134-0.797,0.401s-0.336,0.653-0.336,1.158zm3.782,3.703l-0.079-0.66c0.154,0.041,0.288,0.062,0.403,0.062,0.156,0,0.281-0.026,0.375-0.078s0.17-0.125,0.23-0.219c0.045-0.07,0.116-0.244,0.215-0.523,0.013-0.039,0.034-0.096,0.063-0.172l-1.575-4.156h0.758l0.864,2.402c0.111,0.305,0.212,0.625,0.3,0.961,0.081-0.323,0.177-0.638,0.289-0.945l0.887-2.418h0.703l-1.578,4.219c-0.169,0.455-0.301,0.769-0.394,0.941-0.125,0.232-0.269,0.402-0.43,0.51-0.162,0.108-0.354,0.162-0.578,0.162-0.136,0-0.287-0.029-0.453-0.086zm5.711-1.598l2.199-5.726h0.816l2.344,5.726h-0.863l-0.668-1.734h-2.395l-0.629,1.734h-0.804zm1.652-2.351h1.941l-0.597-1.586c-0.183-0.482-0.318-0.878-0.407-1.188-0.073,0.368-0.175,0.732-0.308,1.094l-0.629,1.68zm4.23,2.351v-4.148h0.633v0.59c0.305-0.456,0.745-0.684,1.32-0.684,0.25,0,0.48,0.045,0.69,0.135s0.366,0.208,0.471,0.353c0.104,0.146,0.177,0.319,0.218,0.52,0.026,0.13,0.039,0.358,0.039,0.684v2.55h-0.703v-2.523c0-0.287-0.027-0.501-0.082-0.643-0.054-0.142-0.151-0.255-0.291-0.34-0.139-0.084-0.302-0.126-0.49-0.126-0.299,0-0.558,0.095-0.775,0.285-0.218,0.19-0.327,0.55-0.327,1.082v2.265h-0.703zm7.145,0v-0.523c-0.263,0.411-0.65,0.617-1.16,0.617-0.331,0-0.635-0.091-0.912-0.273-0.278-0.183-0.493-0.437-0.645-0.764s-0.228-0.702-0.228-1.127c0-0.414,0.069-0.79,0.207-1.127s0.345-0.596,0.621-0.775c0.276-0.18,0.584-0.27,0.925-0.27,0.25,0,0.473,0.053,0.668,0.158,0.196,0.106,0.355,0.243,0.477,0.412v-2.054h0.699v5.726h-0.652zm-2.223-2.07c0,0.531,0.112,0.928,0.336,1.191s0.488,0.395,0.793,0.395c0.307,0,0.568-0.126,0.783-0.377s0.323-0.635,0.323-1.15c0-0.568-0.11-0.985-0.329-1.25-0.218-0.266-0.488-0.399-0.808-0.399-0.313,0-0.574,0.128-0.783,0.383-0.21,0.255-0.315,0.658-0.315,1.207zm3.977,2.07v-4.148h0.633v0.629c0.161-0.294,0.31-0.488,0.447-0.582s0.287-0.141,0.451-0.141c0.237,0,0.478,0.076,0.723,0.227l-0.242,0.652c-0.172-0.102-0.344-0.152-0.516-0.152-0.154,0-0.292,0.046-0.414,0.138-0.123,0.093-0.21,0.221-0.262,0.385-0.078,0.25-0.117,0.524-0.117,0.82v2.172h-0.703zm5.519-1.336l0.727,0.09c-0.115,0.425-0.327,0.754-0.637,0.989-0.31,0.234-0.706,0.351-1.187,0.351-0.607,0-1.088-0.187-1.444-0.56-0.355-0.374-0.533-0.898-0.533-1.573,0-0.698,0.18-1.239,0.539-1.625,0.36-0.385,0.826-0.578,1.399-0.578,0.554,0,1.007,0.189,1.359,0.567,0.352,0.377,0.527,0.908,0.527,1.593,0,0.042-0.001,0.104-0.004,0.188h-3.093c0.026,0.456,0.155,0.804,0.386,1.047,0.232,0.242,0.521,0.363,0.868,0.363,0.257,0,0.477-0.068,0.66-0.203,0.182-0.136,0.327-0.352,0.433-0.649zm-2.308-1.136h2.316c-0.031-0.349-0.12-0.611-0.265-0.785-0.224-0.271-0.515-0.407-0.872-0.407-0.323,0-0.594,0.108-0.814,0.324-0.22,0.217-0.342,0.506-0.365,0.868zm4.687,2.472l-1.269-4.148h0.726l0.66,2.394,0.247,0.891c0.01-0.044,0.082-0.329,0.214-0.855l0.661-2.43h0.722l0.621,2.406,0.207,0.793,0.239-0.801,0.711-2.398h0.683l-1.297,4.148h-0.73l-0.66-2.484-0.161-0.707-0.839,3.191h-0.735zm7.364,0v-5.726h3.863v0.676h-3.106v1.773h2.688v0.676h-2.688v2.601h-0.757zm4.765-4.918v-0.808h0.703v0.808h-0.703zm0,4.918v-4.148h0.703v4.148h-0.703zm3.308-0.629l0.11,0.622c-0.2,0.041-0.38,0.062-0.54,0.062-0.25,0-0.45-0.04-0.589-0.121-0.14-0.081-0.239-0.187-0.297-0.318-0.057-0.132-0.086-0.409-0.086-0.831v-2.386h-0.515v-0.547h0.515v-1.027l0.702-0.422v1.449h0.7v0.547h-0.7v2.426c0,0.2,0.01,0.329,0.03,0.386,0.03,0.058,0.07,0.103,0.13,0.137,0.05,0.034,0.13,0.051,0.24,0.051,0.07,0,0.18-0.009,0.3-0.028zm0.32,0.629v-0.57l2.64-3.031c-0.3,0.015-0.57,0.023-0.8,0.023h-1.69v-0.57h3.39v0.465l-2.24,2.633-0.44,0.48c0.32-0.023,0.61-0.035,0.89-0.035h1.92v0.605h-3.67zm4.09-1.238l0.69-0.109c0.04,0.278,0.15,0.492,0.33,0.64,0.18,0.149,0.43,0.223,0.75,0.223s0.56-0.066,0.72-0.197c0.15-0.132,0.23-0.286,0.23-0.463,0-0.159-0.07-0.284-0.21-0.375-0.09-0.063-0.33-0.142-0.72-0.238-0.51-0.131-0.87-0.243-1.07-0.338s-0.35-0.227-0.45-0.395-0.16-0.353-0.16-0.557c0-0.184,0.05-0.356,0.13-0.513,0.09-0.158,0.2-0.289,0.35-0.393,0.11-0.081,0.26-0.149,0.44-0.205,0.19-0.056,0.4-0.084,0.61-0.084,0.33,0,0.61,0.047,0.86,0.141s0.43,0.22,0.54,0.381c0.12,0.16,0.2,0.374,0.25,0.642l-0.69,0.094c-0.03-0.214-0.12-0.38-0.27-0.5s-0.36-0.18-0.64-0.18c-0.32,0-0.55,0.054-0.69,0.16-0.14,0.107-0.21,0.232-0.21,0.375,0,0.092,0.03,0.174,0.09,0.247,0.06,0.075,0.15,0.138,0.27,0.187,0.07,0.026,0.28,0.086,0.62,0.18,0.5,0.133,0.84,0.241,1.04,0.326s0.35,0.208,0.46,0.369c0.12,0.161,0.17,0.362,0.17,0.602,0,0.234-0.07,0.455-0.2,0.662-0.14,0.207-0.34,0.367-0.59,0.48-0.26,0.113-0.55,0.17-0.88,0.17-0.54,0-0.95-0.112-1.23-0.336s-0.46-0.556-0.54-0.996zm4.28-3.68v-0.808h0.71v0.808h-0.71zm0,4.918v-4.148h0.71v4.148h-0.71zm1.78,0v-4.148h0.63v0.582c0.13-0.203,0.3-0.367,0.52-0.49,0.21-0.124,0.46-0.186,0.74-0.186,0.3,0,0.56,0.064,0.75,0.192,0.2,0.127,0.34,0.306,0.42,0.535,0.33-0.485,0.75-0.727,1.28-0.727,0.41,0,0.73,0.114,0.95,0.342s0.33,0.579,0.33,1.053v2.847h-0.7v-2.613c0-0.281-0.02-0.484-0.07-0.607-0.04-0.124-0.13-0.224-0.25-0.299-0.11-0.076-0.26-0.113-0.42-0.113-0.29,0-0.53,0.097-0.72,0.291-0.2,0.194-0.29,0.504-0.29,0.931v2.41h-0.71v-2.695c0-0.312-0.05-0.547-0.17-0.703-0.11-0.156-0.3-0.234-0.56-0.234-0.2,0-0.38,0.052-0.55,0.156s-0.29,0.256-0.36,0.457c-0.08,0.2-0.12,0.489-0.12,0.867v2.152h-0.7zm6.41-2.074c0-0.768,0.21-1.337,0.64-1.707,0.36-0.307,0.79-0.461,1.3-0.461,0.58,0,1.04,0.187,1.4,0.561,0.37,0.373,0.55,0.89,0.55,1.549,0,0.533-0.08,0.953-0.24,1.259s-0.4,0.544-0.7,0.713c-0.31,0.169-0.64,0.254-1.01,0.254-0.58,0-1.05-0.186-1.4-0.559-0.36-0.372-0.54-0.908-0.54-1.609zm0.72,0c0,0.531,0.12,0.929,0.35,1.193,0.23,0.265,0.52,0.397,0.87,0.397s0.64-0.133,0.88-0.398c0.23-0.266,0.34-0.671,0.34-1.215,0-0.513-0.11-0.902-0.35-1.166-0.23-0.265-0.52-0.397-0.87-0.397s-0.64,0.132-0.87,0.395-0.35,0.66-0.35,1.191zm3.99,2.074v-4.148h0.64v0.59c0.3-0.456,0.74-0.684,1.32-0.684,0.25,0,0.48,0.045,0.69,0.135s0.36,0.208,0.47,0.353c0.1,0.146,0.17,0.319,0.22,0.52,0.02,0.13,0.04,0.358,0.04,0.684v2.55h-0.71v-2.523c0-0.287-0.02-0.501-0.08-0.643-0.05-0.142-0.15-0.255-0.29-0.34-0.14-0.084-0.3-0.126-0.49-0.126-0.3,0-0.56,0.095-0.78,0.285-0.21,0.19-0.32,0.55-0.32,1.082v2.265h-0.71z"/>
 <path id="text902" stroke-width="1pt" d="M4.5923-13.766v-8.59h3.8085c0.7657,0,1.3477,0.077,1.7462,0.231,0.398,0.155,0.717,0.427,0.955,0.818,0.238,0.39,0.357,0.822,0.357,1.295,0,0.609-0.197,1.123-0.591,1.541-0.395,0.418-1.0043,0.683-1.8285,0.797,0.3008,0.144,0.5293,0.287,0.6856,0.427,0.3319,0.305,0.6469,0.686,0.9429,1.143l1.495,2.338h-1.43l-1.1368-1.787c-0.3321-0.516-0.6055-0.911-0.8204-1.184-0.2148-0.273-0.4072-0.465-0.5771-0.574-0.1699-0.11-0.3428-0.186-0.5186-0.229-0.1289-0.027-0.3398-0.041-0.6328-0.041h-1.3183v3.815h-1.1367zm1.1367-4.799h2.4433c0.5196,0,0.9258-0.054,1.2188-0.161,0.2929-0.108,0.5156-0.28,0.6679-0.516,0.152-0.236,0.229-0.493,0.229-0.77,0-0.407-0.148-0.741-0.4428-1.002-0.2949-0.262-0.7608-0.393-1.3975-0.393h-2.7187v2.842zm11.643,2.795l1.089,0.135c-0.171,0.636-0.49,1.13-0.955,1.482s-1.058,0.527-1.781,0.527c-0.91,0-1.632-0.28-2.165-0.84-0.533-0.561-0.8-1.347-0.8-2.359,0-1.047,0.27-1.859,0.809-2.437s1.238-0.868,2.097-0.868c0.832,0,1.512,0.284,2.04,0.85,0.527,0.566,0.791,1.363,0.791,2.391,0,0.062-0.002,0.156-0.006,0.281h-4.641c0.039,0.684,0.232,1.207,0.58,1.57,0.348,0.364,0.781,0.545,1.301,0.545,0.387,0,0.717-0.101,0.99-0.305,0.274-0.203,0.49-0.527,0.651-0.972zm-3.463-1.705h3.474c-0.047-0.524-0.179-0.916-0.398-1.178-0.336-0.406-0.772-0.609-1.307-0.609-0.484,0-0.891,0.162-1.221,0.486-0.331,0.324-0.513,0.758-0.548,1.301zm9.92,3.709v-0.785c-0.395,0.617-0.975,0.925-1.741,0.925-0.496,0-0.952-0.136-1.368-0.41-0.416-0.273-0.738-0.655-0.967-1.145-0.228-0.491-0.342-1.054-0.342-1.691,0-0.621,0.103-1.184,0.31-1.69s0.518-0.894,0.932-1.163c0.414-0.27,0.877-0.405,1.388-0.405,0.375,0,0.709,0.08,1.002,0.238s0.532,0.364,0.715,0.618v-3.082h1.049v8.59h-0.978zm-3.334-3.106c0,0.797,0.168,1.393,0.504,1.787,0.335,0.395,0.732,0.592,1.189,0.592,0.461,0,0.852-0.188,1.175-0.565,0.322-0.377,0.483-0.952,0.483-1.726,0-0.851-0.164-1.476-0.492-1.875-0.328-0.398-0.732-0.597-1.213-0.597-0.469,0-0.86,0.191-1.175,0.574-0.314,0.383-0.471,0.986-0.471,1.81zm6.949,3.106h-0.979v-8.59h1.055v3.064c0.445-0.558,1.014-0.838,1.705-0.838,0.383,0,0.745,0.078,1.087,0.232s0.623,0.371,0.844,0.65c0.22,0.28,0.393,0.617,0.518,1.011,0.125,0.395,0.188,0.816,0.188,1.266,0,1.066-0.264,1.89-0.791,2.472-0.528,0.582-1.16,0.873-1.899,0.873-0.734,0-1.31-0.306-1.728-0.92v0.78zm-0.012-3.158c0,0.746,0.102,1.285,0.305,1.617,0.332,0.543,0.781,0.814,1.347,0.814,0.461,0,0.86-0.2,1.196-0.6,0.336-0.401,0.504-0.997,0.504-1.79,0-0.813-0.161-1.413-0.484-1.799-0.322-0.387-0.712-0.58-1.169-0.58-0.461,0-0.859,0.2-1.195,0.6-0.336,0.401-0.504,0.98-0.504,1.738zm9.779,2.39c-0.39,0.332-0.766,0.567-1.128,0.703-0.361,0.137-0.749,0.205-1.163,0.205-0.683,0-1.209-0.167-1.576-0.501s-0.551-0.76-0.551-1.28c0-0.305,0.07-0.583,0.208-0.835,0.139-0.252,0.321-0.454,0.545-0.606,0.225-0.153,0.478-0.268,0.759-0.346,0.207-0.055,0.52-0.107,0.938-0.158,0.851-0.102,1.478-0.223,1.881-0.363,0.003-0.145,0.005-0.237,0.005-0.276,0-0.43-0.099-0.732-0.298-0.908-0.27-0.238-0.67-0.357-1.202-0.357-0.496,0-0.862,0.086-1.098,0.26-0.237,0.174-0.411,0.482-0.525,0.923l-1.031-0.141c0.094-0.441,0.248-0.797,0.463-1.069,0.215-0.271,0.525-0.48,0.932-0.627,0.406-0.146,0.877-0.22,1.412-0.22,0.531,0,0.963,0.063,1.295,0.188s0.576,0.282,0.732,0.472c0.156,0.189,0.266,0.428,0.328,0.717,0.035,0.18,0.053,0.504,0.053,0.973v1.406c0,0.981,0.022,1.601,0.067,1.861,0.045,0.259,0.134,0.508,0.267,0.747h-1.102c-0.109-0.219-0.179-0.475-0.211-0.768zm-0.087-2.355c-0.383,0.156-0.958,0.289-1.723,0.398-0.434,0.063-0.74,0.133-0.92,0.211s-0.318,0.192-0.416,0.343c-0.098,0.15-0.147,0.317-0.147,0.501,0,0.281,0.107,0.515,0.32,0.703,0.213,0.187,0.524,0.281,0.934,0.281,0.407,0,0.768-0.089,1.084-0.266,0.317-0.178,0.549-0.421,0.698-0.73,0.113-0.238,0.169-0.59,0.17-1.055v-0.386zm6.767,0.843l1.037,0.135c-0.113,0.715-0.403,1.275-0.87,1.679s-1.04,0.606-1.72,0.606c-0.851,0-1.536-0.278-2.053-0.835-0.518-0.556-0.777-1.354-0.777-2.393,0-0.672,0.112-1.26,0.334-1.764,0.223-0.504,0.562-0.882,1.017-1.134s0.95-0.378,1.485-0.378c0.676,0,1.229,0.171,1.658,0.513,0.43,0.342,0.705,0.827,0.827,1.456l-1.026,0.158c-0.097-0.418-0.27-0.732-0.518-0.943s-0.548-0.316-0.9-0.316c-0.531,0-0.963,0.19-1.295,0.571s-0.498,0.983-0.498,1.808c0,0.835,0.16,1.443,0.481,1.822,0.32,0.379,0.738,0.568,1.254,0.568,0.414,0,0.759-0.127,1.037-0.381,0.277-0.254,0.453-0.644,0.527-1.172zm1.945,2.28v-8.59h1.055v4.898l2.496-2.531h1.365l-2.378,2.309,2.619,3.914h-1.301l-2.057-3.182-0.744,0.715v2.467h-1.055zm9.071-2.76l1.072-0.094c0.051,0.43,0.169,0.782,0.354,1.058,0.186,0.275,0.474,0.498,0.865,0.668,0.39,0.17,0.83,0.255,1.318,0.255,0.434,0,0.816-0.065,1.149-0.194,0.332-0.129,0.579-0.305,0.741-0.53s0.243-0.47,0.243-0.735c0-0.27-0.078-0.505-0.234-0.706-0.157-0.202-0.415-0.37-0.774-0.507-0.23-0.09-0.74-0.23-1.529-0.419-0.789-0.19-1.342-0.368-1.658-0.536-0.411-0.215-0.716-0.482-0.917-0.8-0.202-0.318-0.302-0.675-0.302-1.069,0-0.434,0.123-0.839,0.369-1.216s0.605-0.663,1.078-0.859c0.473-0.195,0.998-0.293,1.576-0.293,0.637,0,1.199,0.103,1.685,0.308s0.86,0.507,1.122,0.905c0.262,0.399,0.402,0.85,0.422,1.354l-1.09,0.082c-0.059-0.543-0.257-0.953-0.595-1.231-0.338-0.277-0.837-0.416-1.497-0.416-0.687,0-1.188,0.126-1.503,0.378-0.314,0.252-0.471,0.556-0.471,0.911,0,0.309,0.111,0.563,0.334,0.762,0.218,0.199,0.79,0.403,1.713,0.612,0.924,0.209,1.558,0.392,1.902,0.548,0.5,0.231,0.869,0.523,1.107,0.876,0.238,0.354,0.358,0.761,0.358,1.222,0,0.457-0.131,0.888-0.393,1.292s-0.638,0.719-1.128,0.943c-0.49,0.225-1.042,0.337-1.655,0.337-0.778,0-1.429-0.113-1.954-0.34-0.526-0.226-0.938-0.567-1.237-1.022-0.298-0.455-0.456-0.97-0.471-1.544zm8.267,5.145v-8.608h0.961v0.809c0.227-0.317,0.483-0.554,0.768-0.712s0.631-0.238,1.037-0.238c0.531,0,1,0.137,1.406,0.411,0.406,0.273,0.713,0.659,0.92,1.157s0.311,1.044,0.311,1.638c0,0.636-0.115,1.209-0.343,1.719-0.229,0.51-0.561,0.901-0.996,1.172-0.436,0.272-0.894,0.407-1.374,0.407-0.352,0-0.667-0.074-0.947-0.222-0.279-0.149-0.508-0.336-0.688-0.563v3.03h-1.055zm0.955-5.461c0,0.8,0.162,1.392,0.487,1.775,0.324,0.383,0.716,0.574,1.177,0.574,0.469,0,0.871-0.198,1.205-0.595,0.334-0.396,0.5-1.01,0.501-1.842-0.001-0.793-0.164-1.387-0.49-1.782-0.326-0.394-0.716-0.591-1.169-0.591-0.449,0-0.846,0.21-1.192,0.63-0.346,0.419-0.519,1.03-0.519,1.831zm5.731-4.301v-1.213h1.055v1.213h-1.055zm0,7.377v-6.223h1.055v6.223h-1.055zm6.703,0v-0.785c-0.395,0.617-0.975,0.925-1.74,0.925-0.496,0-0.952-0.136-1.368-0.41-0.416-0.273-0.739-0.655-0.967-1.145-0.229-0.491-0.343-1.054-0.343-1.691,0-0.621,0.104-1.184,0.311-1.69s0.517-0.894,0.931-1.163c0.414-0.27,0.877-0.405,1.389-0.405,0.375,0,0.709,0.08,1.002,0.238s0.531,0.364,0.715,0.618v-3.082h1.048v8.59h-0.978zm-3.334-3.106c0,0.797,0.168,1.393,0.504,1.787,0.336,0.395,0.732,0.592,1.189,0.592,0.461,0,0.853-0.188,1.175-0.565s0.484-0.952,0.484-1.726c0-0.851-0.165-1.476-0.493-1.875-0.328-0.398-0.732-0.597-1.213-0.597-0.468,0-0.86,0.191-1.174,0.574-0.315,0.383-0.472,0.986-0.472,1.81zm10.236,1.102l1.09,0.135c-0.172,0.636-0.49,1.13-0.955,1.482s-1.059,0.527-1.781,0.527c-0.91,0-1.632-0.28-2.165-0.84-0.533-0.561-0.8-1.347-0.8-2.359,0-1.047,0.27-1.859,0.809-2.437s1.238-0.868,2.097-0.868c0.832,0,1.512,0.284,2.039,0.85,0.528,0.566,0.791,1.363,0.791,2.391,0,0.062-0.002,0.156-0.006,0.281h-4.64c0.039,0.684,0.232,1.207,0.58,1.57,0.348,0.364,0.781,0.545,1.301,0.545,0.386,0,0.716-0.101,0.99-0.305,0.273-0.203,0.49-0.527,0.65-0.972zm-3.463-1.705h3.475c-0.047-0.524-0.18-0.916-0.398-1.178-0.336-0.406-0.772-0.609-1.307-0.609-0.484,0-0.892,0.162-1.222,0.486s-0.512,0.758-0.548,1.301zm5.872,3.709v-6.223h0.949v0.943c0.242-0.441,0.466-0.732,0.671-0.873,0.205-0.14,0.43-0.211,0.676-0.211,0.356,0,0.717,0.114,1.084,0.34l-0.363,0.979c-0.258-0.153-0.516-0.229-0.773-0.229-0.231,0-0.438,0.07-0.621,0.208-0.184,0.139-0.315,0.331-0.393,0.577-0.117,0.375-0.176,0.786-0.176,1.231v3.258h-1.054z"/>
</svg>
